<?xml version="1.0" encoding="UTF-8" ?>
<!DOCTYPE svg PUBLIC "-//W3C//DTD SVG 1.1//EN" "http://www.w3.org/Graphics/SVG/1.1/DTD/svg11.dtd">
<svg width="200pt" height="200pt" viewBox="0 0 200 200" version="1.1" xmlns="http://www.w3.org/2000/svg">
<path fill="#ffffff" d=" M 0.00 0.00 L 200.00 0.00 L 200.00 200.00 L 0.00 200.00 L 0.00 0.00 Z" />
<path fill="#287bab" d=" M 26.51 48.51 C 39.21 38.26 56.99 34.95 72.60 39.58 C 91.22 44.80 105.89 61.58 108.32 80.81 C 113.98 80.82 119.65 80.82 125.31 80.81 C 125.31 75.41 125.30 70.01 125.32 64.61 C 138.70 72.13 152.09 79.67 165.46 87.21 C 152.09 94.75 138.70 102.29 125.32 109.81 C 125.31 104.98 125.31 100.15 125.31 95.32 C 119.61 95.30 113.90 95.31 108.20 95.31 C 106.58 105.85 102.42 116.19 95.11 124.08 C 84.67 135.22 74.17 146.31 63.70 157.43 C 63.67 150.47 63.71 143.51 63.67 136.56 C 49.75 137.45 35.19 133.77 24.64 124.32 C 13.69 114.88 7.15 100.49 7.66 86.00 C 7.89 71.49 15.14 57.44 26.51 48.51 Z" />
<path fill="#287971" d=" M 103.45 56.12 C 111.59 46.37 123.33 39.62 135.99 38.04 C 150.01 36.08 164.80 40.24 175.60 49.43 C 185.34 57.53 191.87 69.43 193.16 82.06 C 194.47 94.63 191.24 107.64 184.10 118.08 C 180.80 123.02 176.43 127.08 172.39 131.40 C 164.09 140.07 155.81 148.75 147.51 157.42 C 147.49 150.47 147.51 143.52 147.50 136.57 C 131.48 137.68 114.89 131.76 104.35 119.41 C 108.00 113.48 110.59 106.96 112.14 100.18 C 114.86 100.19 117.58 100.19 120.31 100.19 C 120.31 106.45 120.31 112.72 120.31 118.98 C 138.43 108.46 156.53 97.91 174.63 87.36 C 156.53 76.81 138.43 66.27 120.32 55.74 C 120.30 62.45 120.32 69.16 120.31 75.87 C 117.62 75.87 114.93 75.87 112.23 75.88 C 110.60 68.80 107.61 62.08 103.45 56.12 Z" />
<path fill="#bed0d6" d=" M 2.39 87.03 C 2.10 75.08 6.58 63.20 14.01 53.92 C 7.64 63.01 3.01 73.68 3.00 84.95 C 1.95 101.58 9.86 118.07 22.54 128.65 C 32.63 137.11 45.70 141.51 58.79 141.87 C 58.26 149.56 58.61 157.27 58.48 164.98 C 58.06 166.51 59.32 167.55 60.09 168.64 C 61.87 164.78 65.41 162.24 68.12 159.08 C 79.14 147.14 90.81 135.79 101.41 123.47 C 111.82 135.03 127.12 141.54 142.60 141.89 C 142.26 150.70 142.43 159.52 142.45 168.34 C 145.13 166.79 147.00 164.29 149.12 162.10 C 160.33 150.32 171.70 138.67 182.88 126.85 C 193.66 115.19 199.19 99.00 197.93 83.18 C 197.60 72.52 193.02 62.54 187.03 53.91 C 191.38 59.23 194.57 65.44 196.51 72.02 C 199.18 79.70 198.76 87.99 198.34 95.98 C 196.97 105.60 193.44 114.99 187.76 122.90 C 182.75 130.08 175.94 135.69 170.12 142.17 C 162.27 150.96 153.70 159.08 145.65 167.69 C 144.69 168.94 143.22 169.40 141.73 169.60 C 141.40 160.93 141.90 152.25 141.44 143.59 C 126.69 143.22 112.08 136.83 101.98 126.04 C 99.34 127.69 97.56 130.30 95.41 132.49 C 91.00 137.05 86.46 141.50 82.25 146.26 C 76.31 152.97 69.65 159.00 63.77 165.77 C 62.10 167.69 60.17 169.38 58.12 170.89 C 57.22 161.84 57.98 152.72 57.62 143.64 C 43.57 143.02 29.42 137.71 19.39 127.67 C 8.43 117.31 1.63 102.21 2.39 87.03 Z" />
<path fill="#ffffff" d=" M 32.24 81.22 C 36.75 78.87 42.76 82.88 42.11 87.98 C 41.89 93.19 35.09 96.11 31.07 92.88 C 26.91 90.12 27.63 83.10 32.24 81.22 Z" />
<path fill="#ffffff" d=" M 55.21 81.23 C 59.74 78.84 65.82 82.90 65.11 88.04 C 64.84 93.18 58.16 96.07 54.15 92.93 C 49.93 90.22 50.59 83.15 55.21 81.23 Z" />
<path fill="#ffffff" d=" M 78.25 81.22 C 82.77 78.86 88.82 82.91 88.11 88.03 C 87.85 93.19 81.13 96.09 77.12 92.91 C 72.92 90.17 73.61 83.11 78.25 81.22 Z" />
</svg>
