<?xml version="1.0" encoding="utf-8"?>
<!-- Generator: Adobe Illustrator 20.1.0, SVG Export Plug-In . SVG Version: 6.00 Build 0)  -->
<svg version="1.1" id="Layer_1" xmlns="http://www.w3.org/2000/svg" xmlns:xlink="http://www.w3.org/1999/xlink" x="0px" y="0px"
	 viewBox="0 0 250 100" style="enable-background:new 0 0 250 100;" xml:space="preserve">
<style type="text/css">
	.st0{fill:#A41E11;}
	.st1{fill:#D82C20;}
	.st2{fill:#FFFFFF;}
	.st3{fill:#7A0C00;}
	.st4{fill:#AD2115;}
</style>
<g>
	<path class="st0" d="M165.9,70.6c-4.8,2.4-29.2,12.6-34.5,15.3s-8.1,2.7-12.2,0.7S88.9,74.1,84.2,71.9c-2.3-1.1-3.6-2.1-3.6-3
		s0-9,0-9s34-7.4,39.5-9.4s7.4-2.1,12.1-0.4c4.7,1.7,32.6,6.8,37.2,8.5c0,0,0,8,0,8.8C169.4,68.4,168.3,69.4,165.9,70.6z"/>
	<path class="st1" d="M165.9,61.6c-4.8,2.4-29.2,12.6-34.5,15.3s-8.1,2.7-12.2,0.7S88.9,65.1,84.2,62.9c-4.7-2.2-4.8-3.8-0.2-5.6
		s30.6-12,36.1-14c5.5-2,7.4-2.1,12.1-0.4c4.7,1.7,29.1,11.4,33.7,13.1C170.4,57.8,170.6,59.2,165.9,61.6z"/>
	<path class="st0" d="M165.9,56c-4.8,2.4-29.2,12.6-34.5,15.3c-5.2,2.7-8.1,2.7-12.2,0.7S88.9,59.5,84.2,57.3
		c-2.3-1.1-3.6-2.1-3.6-3c0-0.9,0-9,0-9s34-7.4,39.5-9.4s7.4-2.1,12.1-0.4c4.7,1.7,32.6,6.8,37.2,8.5c0,0,0,8,0,8.8
		C169.4,53.8,168.3,54.8,165.9,56z"/>
	<path class="st1" d="M165.9,47c-4.8,2.4-29.2,12.6-34.5,15.3s-8.1,2.7-12.2,0.7c-4.1-2-30.2-12.5-34.9-14.8s-4.8-3.8-0.2-5.6
		c4.6-1.8,30.6-12,36.1-13.9s7.4-2.1,12.1-0.4c4.7,1.7,29.1,11.4,33.7,13.1C170.4,43.2,170.6,44.5,165.9,47z"/>
	<path class="st0" d="M165.9,40.8c-4.8,2.4-29.2,12.6-34.5,15.3s-8.1,2.7-12.2,0.7c-4.1-2-30.2-12.5-34.9-14.8
		c-2.3-1.1-3.6-2.1-3.6-3s0-9,0-9s34-7.4,39.5-9.4c5.5-2,7.4-2.1,12.1-0.4c4.7,1.7,32.6,6.8,37.2,8.5c0,0,0,8,0,8.8
		C169.4,38.6,168.3,39.6,165.9,40.8z"/>
	<path class="st1" d="M165.9,31.8c-4.8,2.4-29.2,12.6-34.5,15.3s-8.1,2.7-12.2,0.7c-4.1-2-30.2-12.5-34.9-14.8
		c-4.7-2.2-4.9-3.8-0.2-5.6c4.6-1.8,30.6-12,36.1-13.9s7.4-2.1,12.1-0.4c4.7,1.7,29.1,11.4,33.7,13.1
		C170.4,28,170.6,29.4,165.9,31.8z"/>
	<polygon class="st2" points="126.3,19.1 132.3,17.2 130.7,20.9 136.6,23.2 129,24 127.2,28.1 124.5,23.5 115.5,22.7 122.2,20.3 
		120.2,16.7 	"/>
	<polygon class="st2" points="126.8,43.3 112.4,37.3 133,34.2 	"/>
	<ellipse class="st2" cx="106.8" cy="29.8" rx="11" ry="4.2"/>
	<polygon class="st3" points="145.7,24.4 157.8,29.1 145.7,34 	"/>
	<polygon class="st4" points="145.7,24.4 145.7,34 144.4,34.4 132.3,29.7 	"/>
</g>
</svg>
