<svg xmlns="http://www.w3.org/2000/svg" width="512" height="512" viewBox="0 0 512 512"><g fill-rule="evenodd" clip-rule="evenodd" fill="#008cdb"><path d="M229.608 127.453c-51.22 10.493-91.66 50.942-102.16 102.153 17.495-11.708 46.299-19.752 78.306-23.843 4.096-32.016 12.14-60.813 23.854-78.31zM219.146 219.15c-1.048 11.42-1.642 23.722-1.642 36.85 0 13.137.594 25.438 1.642 36.859 11.418 1.048 23.72 1.642 36.852 1.642 13.137 0 25.438-.594 36.857-1.642 1.048-11.42 1.642-23.722 1.642-36.859 0-13.127-.594-25.429-1.642-36.85-11.418-1.048-23.72-1.642-36.857-1.642-13.132 0-25.434.594-36.852 1.642zM204.135 291.143c-1.011-11.597-1.535-23.425-1.535-35.143s.524-23.537 1.535-35.143c-50.121 6.847-79.358 22.85-79.358 35.143-.001 12.302 29.237 28.305 79.358 35.143zM387.219 256c0-12.292-29.237-28.287-79.354-35.143 1.011 11.606 1.533 23.425 1.533 35.143s-.522 23.546-1.533 35.143c50.116-6.847 79.354-22.841 79.354-35.143zM384.554 229.606c-10.502-51.211-50.944-91.661-102.162-102.153 11.715 17.497 19.759 46.294 23.852 78.31 32.009 4.091 60.811 12.135 78.31 23.843zM255.998 202.6c11.715 0 23.543.529 35.143 1.54-6.849-50.125-22.843-79.358-35.14-79.358s-28.293 29.233-35.14 79.358a405.962 405.962 0 0 1 35.137-1.54zM127.448 282.394c10.5 51.22 50.94 91.66 102.16 102.162-11.715-17.497-19.759-46.303-23.854-78.31-32.007-4.091-60.811-12.135-78.306-23.852zM282.392 384.556c51.218-10.502 91.66-50.942 102.162-102.162-17.499 11.717-46.301 19.761-78.31 23.852-4.094 32.007-12.138 60.813-23.852 78.31zM255.998 309.4c-11.712 0-23.541-.52-35.138-1.531 6.847 50.116 22.843 79.349 35.14 79.349s28.291-29.233 35.14-79.349a406.093 406.093 0 0 1-35.142 1.531z"/><path d="M256 85.046c-94.42 0-170.958 76.547-170.958 170.954 0 94.425 76.538 170.963 170.958 170.963 94.418 0 170.958-76.538 170.958-170.963 0-94.406-76.54-170.954-170.958-170.954zm0 317.081c-80.571 0-146.123-65.554-146.123-146.127S175.429 109.882 256 109.882 402.123 175.426 402.123 256 336.571 402.127 256 402.127z"/></g><path fill="#008cdb" d="M256 446c-104.765 0-190-85.231-190-190S151.235 66 256 66s190 85.231 190 190-85.235 190-190 190zm0-370.064c-99.289 0-180.068 80.778-180.068 180.064 0 99.295 80.78 180.073 180.068 180.073 99.286 0 180.066-80.778 180.066-180.073 0-99.286-80.78-180.064-180.066-180.064z"/></svg>